<svg xmlns="http://www.w3.org/2000/svg" viewBox="0 0 1280 1280">
  <defs>
    <style>
      .a,
      .b,
      .c {
        fill-rule: evenodd;
      }

      .a {
        fill: #8965ab;
      }

      .b {
        fill: #af7ed6;
      }

      .c {
        fill: #64bc87;
      }

      .d {
        fill: #f0fff1;
      }

      .e {
        fill: #96e494;
      }
    </style>
  </defs>
  <g>
    <path class="a" d="M462.87,441.63c8.49-13,22.55-33.58,33.05-44.35,20.45-21,51.48-50.77,82.19-70h-90a28,28,0,0,1,0-56H773.26C976.58,271.26,1142,436.68,1142,640s-165.41,368.74-368.74,368.74H308.45a28,28,0,0,1,0-56H578.11a364.66,364.66,0,0,1-56.9-43.84c-17.63-16.64-48.88-56-48.88-56q-5.06-7.12-9.78-14.5H394.81a28,28,0,1,1,0-56h38.3A366.08,366.08,0,0,1,405.57,668H323.09a28,28,0,1,1,0-56h82.49a366,366,0,0,1,27.55-114.35H217.64a28,28,0,1,1,0-56ZM909.31,823.8c-.52.43-1,.87-1.59,1.27s-1.26.88-1.91,1.27a228.3,228.3,0,0,1-265.1,0c-.65-.39-1.29-.82-1.91-1.27s-1.07-.84-1.58-1.27A228.57,228.57,0,0,1,544.5,640c0-126.14,102.62-228.76,228.76-228.76S1002,513.86,1002,640a228.58,228.58,0,0,1-92.71,183.8Z" />
    <path class="b" d="M462.87,441.63c8.49-13,22.55-33.58,33.05-44.35,20.45-21,51.48-50.77,82.19-70h-90a28,28,0,0,1,0-56H675c78,47.23-63.58,124.86-14,170.33,88.34,80.95-1.57,107,.24,182.55,2,82.39,75.56,172.09-19.85,248.42-53.53,42.83,95.4,95.17,12.61,136.18H308.45a28,28,0,0,1,0-56H578.11a365.27,365.27,0,0,1-56.9-43.84c-17.63-16.65-48.88-56-48.88-56q-5.06-7.11-9.78-14.49H394.81a28,28,0,1,1,0-56h38.3A366.08,366.08,0,0,1,405.57,668H323.09a28,28,0,1,1,0-56h82.49a366,366,0,0,1,27.55-114.35H217.64a28,28,0,1,1,0-56Z" />
    <path class="c" d="M909.3,823.8c-.51.43-1,.87-1.58,1.27s-1.26.88-1.91,1.28a228.34,228.34,0,0,1-265.1,0c-.65-.4-1.29-.82-1.91-1.28s-1.07-.84-1.59-1.27A228.58,228.58,0,0,1,544.5,640c0-126.14,102.62-228.76,228.76-228.76S1002,513.86,1002,640A228.56,228.56,0,0,1,909.3,823.8Z" />
    <path class="d" d="M773.26,597.72A42.29,42.29,0,1,0,815.55,640,42.33,42.33,0,0,0,773.26,597.72Z" />
    <path class="d" d="M801.27,469.54v76.25a98.66,98.66,0,0,1,52.9,38.48L926.7,560.7a173.26,173.26,0,0,0-125.43-91.16Z" />
    <path class="d" d="M944.05,614,871.5,637.53c0,.82.06,1.64.06,2.47a97.81,97.81,0,0,1-20.29,59.72l44.79,61.65a172.67,172.67,0,0,0,48-147.41Z" />
    <path class="d" d="M619.82,560.7l72.53,23.57a98.63,98.63,0,0,1,52.9-38.48V469.54A173.26,173.26,0,0,0,619.82,560.7Z" />
    <path class="d" d="M806,732.68a98.06,98.06,0,0,1-65.44,0l-44.8,61.67a172.5,172.5,0,0,0,155,0L806,732.68Z" />
    <path class="d" d="M675,640c0-.83,0-1.65.06-2.47L602.47,614a172.67,172.67,0,0,0,48,147.41l44.79-61.65A97.81,97.81,0,0,1,675,640Z" />
    <path class="e" d="M290.76,838.37a27.89,27.89,0,0,0,27.9-27.72h0a28.1,28.1,0,0,0-28.1-28.29H237.72a28,28,0,0,0,0,56Z" />
    <path class="e" d="M219,668A27.92,27.92,0,0,0,247,640.28h0A28.12,28.12,0,0,0,218.84,612H166a28,28,0,0,0,0,56Z" />
    <path class="e" d="M379.5,327.28a27.91,27.91,0,0,0,27.9-27.73h0a28.12,28.12,0,0,0-28.11-28.29H326.46a28,28,0,0,0,0,56Z" />
  </g>
</svg>
